<svg width="32" height="32" viewBox="0 0 32 32" xmlns="http://www.w3.org/2000/svg">
  <defs>
    <linearGradient id="b" x1="0%" y1="0%" x2="100%" y2="100%">
      <stop offset="0%" stop-color="#36A9E1"/>
      <stop offset="100%" stop-color="#1B75BC"/>
    </linearGradient>
    <linearGradient id="g" x1="0%" y1="0%" x2="100%" y2="100%">
      <stop offset="0%" stop-color="#8CC63F"/>
      <stop offset="100%" stop-color="#39B54A"/>
    </linearGradient>
    <linearGradient id="o" x1="0%" y1="0%" x2="100%" y2="100%">
      <stop offset="0%" stop-color="#FBB03B"/>
      <stop offset="100%" stop-color="#F15A24"/>
    </linearGradient>
    <linearGradient id="p" x1="0%" y1="0%" x2="100%" y2="100%">
      <stop offset="0%" stop-color="#EC008C"/>
      <stop offset="100%" stop-color="#D4145A"/>
    </linearGradient>
  </defs>
  <g transform="translate(16,16)">
    <path d="M0,-14 A14,14 0 0,1 12.1,-7 L4.7,-2.3 A7,7 0 0,0 0,-7 Z" fill="url(#b)"/>
    <path d="M12.1,-7 A14,14 0 0,1 12.1,7 L4.7,2.3 A7,7 0 0,0 4.7,-2.3 Z" fill="url(#o)"/>
    <path d="M12.1,7 A14,14 0 0,1 0,14 L0,7 A7,7 0 0,0 4.7,2.3 Z" fill="url(#p)"/>
    <path d="M0,14 A14,14 0 0,1 -12.1,7 L-4.7,2.3 A7,7 0 0,0 0,7 Z" fill="url(#g)"/>
    <path d="M-12.1,7 A14,14 0 0,1 -12.1,-7 L-4.7,-2.3 A7,7 0 0,0 -4.7,2.3 Z" fill="url(#b)" opacity="0.7"/>
    <path d="M-12.1,-7 A14,14 0 0,1 0,-14 L0,-7 A7,7 0 0,0 -4.7,-2.3 Z" fill="url(#o)" opacity="0.7"/>
    <circle r="4" fill="#ffffff"/>
  </g>
</svg>
